HIERARCHY
ROOT pelvis
{
  OFFSET 0 100 0
  CHANNELS 6 Xposition Yposition Zposition Zrotation Xrotation Yrotation
  JOINT pelvis_right_femur
  {
    OFFSET -10.78128 -3.44521 -0.5502486
    CHANNELS 3 Zrotation Xrotation Yrotation
    JOINT right_femur_tibia
    {
      OFFSET -0.8047443 -44.0398 -0.1307829
      CHANNELS 3 Zrotation Xrotation Yrotation
      JOINT right_tibia_foot
      {
        OFFSET 3.006224 -47.83518 -5
        CHANNELS 3 Zrotation Xrotation Yrotation
        End Site
        {
          OFFSET 0 -5 15
        }
      }
    }
  }
  JOINT pelvis_left_femur
  {
    OFFSET 10.78128 -3.44521 -0.5502486
    CHANNELS 3 Zrotation Xrotation Yrotation
    JOINT left_femur_tibia
    {
      OFFSET 0.8047443 -44.0398 -0.1307829
      CHANNELS 3 Zrotation Xrotation Yrotation
      JOINT left_tibia_foot
      {
        OFFSET -4.370144 -48.10324 -4.275266
        CHANNELS 3 Zrotation Xrotation Yrotation
        End Site
        {
          OFFSET 0 -5 15
        }
      }
    }
  }
  JOINT pelvis_spine1
  {
    OFFSET 0 6.468898 -3.129235
    CHANNELS 3 Zrotation Xrotation Yrotation
    JOINT spine1
    {
      OFFSET 0 23.15396 4.99043
      CHANNELS 3 Zrotation Xrotation Yrotation
      JOINT spine2
      {
        OFFSET 0 20.79997 -5.064912
        CHANNELS 3 Zrotation Xrotation Yrotation
        JOINT neck
        {
          OFFSET 0 14.38658 9.616178
          CHANNELS 3 Zrotation Xrotation Yrotation
          End Site
          {
            OFFSET 0 20 0
          }
        }
      }
      JOINT right_manubrium
      {
        OFFSET -5.722621 16.35077 3.967754
        CHANNELS 3 Zrotation Xrotation Yrotation
        JOINT right_clavicle
        {
          OFFSET -13.16364 1.694482 -4.693211
          CHANNELS 3 Zrotation Xrotation Yrotation
          JOINT right_humerus
          {
            OFFSET -28.5034 -0.3100689 -2.792744
            CHANNELS 3 Zrotation Xrotation Yrotation
            JOINT right_radius
            {
              OFFSET -25.15693 0.02248979 -1.271978
              CHANNELS 3 Zrotation Xrotation Yrotation
              End Site
              {
                OFFSET -15 0 0
              }
            }
          }
        }
      }
      JOINT left_manubrium
      {
        OFFSET 5.722621 16.35077 3.967754
        CHANNELS 3 Zrotation Xrotation Yrotation
        JOINT left_clavicle
        {
          OFFSET 13.16364 1.694482 -4.693211
          CHANNELS 3 Zrotation Xrotation Yrotation
          JOINT left_humerus
          {
            OFFSET 29.39168 -1.063119 -2.237045
            CHANNELS 3 Zrotation Xrotation Yrotation
            JOINT left_radius
            {
              OFFSET 24.59957 -0.9528479 0.9047498
              CHANNELS 3 Zrotation Xrotation Yrotation
              End Site
              {
                OFFSET 15 -0 -0
              }
            }
          }
        }
      }
    }
  }
}
MOTION
Frames: 23
Frame Time: 0.0416666666667
0 103.5113 0 0.3626449 -3.136038 -0.04005485 3.172844 -11.68993 6.955335 -0 37.59592 -0 -10.21286 -16.0614 -4.601509 -5.408043 9.792302 -21.97397 -0 5.006554 -0 6.888686 -14.41982 24.71276 -2.295015 -1.869525 5.004729 2.453225 10.03295 -6.984704 1.108898 21.2541 6.435957 3.339128 -24.65702 8.445474 5.320489 -19.05395 11.56017 85.27067 36.67563 -17.07489 -0 0 14.4429 -7.998569 7.023383 5.699906 6.042822 -20.29478 -2.164233 -91.09498 21.04278 20.24565 0 0 -17.7064 12.63424 12.38449 -1.289376
0.2320699 103.3564 1.865432 0.370893 -2.686826 -0.07167234 3.359284 -13.86527 7.217198 -0 37.46217 -0 -9.559096 -15.17875 -4.358779 -5.62617 10.7325 -22.30495 -0 4.945532 -0 6.678825 -15.57957 24.90576 -2.314114 -1.925949 4.889633 2.550529 10.00326 -7.177737 1.158641 21.15774 6.490832 3.278818 -24.91399 8.692457 5.313449 -18.85577 11.51944 85.81247 37.04587 -17.85399 -0 0 13.99888 -7.491801 7.108815 5.311974 6.165941 -20.47482 -2.094463 -90.48695 21.00359 19.3996 0 0 -19.00998 13.17447 12.28965 -1.887358
0.4496345 103.0818 3.790967 0.2605136 -1.920089 -0.06382102 4.03383 -18.81592 6.845254 -0 35.14124 -0 -9.007684 -11.91707 -3.411878 -5.937259 12.27891 -22.04818 -0 5.143624 -0 6.758441 -17.80146 24.85703 -2.280483 -1.962787 4.939185 2.631052 10.02971 -7.252214 1.087595 21.10808 6.470715 3.27718 -25.12645 8.589698 5.332143 -19.02361 11.55161 85.84923 36.88257 -18.01949 -0 0 14.09971 -7.262184 6.775543 5.344168 6.071125 -20.50072 -2.105976 -90.83373 21.32607 19.93828 0 0 -18.83069 12.73462 12.19622 -1.254076
0.6508317 102.6942 5.831162 0.1154951 -1.047356 -0.007898862 4.606905 -22.38912 6.761193 -0 32.68914 -0 -8.213076 -10.43353 -2.945575 -6.048804 13.17417 -21.71061 -0 5.329866 -0 6.273003 -19.40114 24.33838 -2.27297 -2.014078 4.890355 2.73844 10.02505 -7.412794 1.078363 21.0256 6.490625 3.234719 -25.39696 8.680442 5.338843 -18.98813 11.54536 86.20619 37.00666 -18.58833 -0 0 13.86668 -6.845124 6.654165 5.147684 6.084252 -20.62126 -2.069389 -90.655 21.49934 19.71913 0 0 -19.51035 12.78558 12.08751 -1.21995
0.8299904 102.1976 8.092196 -0.1212785 0.1335549 0.1120062 5.34358 -26.07844 6.80856 -0 29.48755 -0 -7.07394 -9.540827 -2.645979 -6.051561 13.9542 -21.15647 -0 5.889396 -0 5.235885 -20.94215 23.23082 -2.257724 -2.058767 4.869807 2.834532 10.02871 -7.543308 1.050793 20.95755 6.498525 3.206612 -25.64016 8.709735 5.348094 -19.01116 11.55039 86.46213 37.03593 -19.02492 -0 0 13.73291 -6.501406 6.472502 5.028276 6.064998 -20.71207 -2.050055 -90.63795 21.71643 19.72799 0 0 -19.91458 12.68477 11.98999 -1.002476
0.9879409 101.6233 10.65016 -0.4100913 1.205208 0.2940472 6.073838 -28.81 6.832799 -0 26.43792 -0 -6.105617 -9.201924 -2.538453 -5.930042 14.42462 -20.41967 -0 7.053946 -0 4.018256 -21.81578 21.74881 -2.249291 -2.098917 4.82389 2.930607 10.02491 -7.681667 1.038785 20.89233 6.512282 3.168029 -25.86771 8.77482 5.355554 -18.97984 11.54771 86.7663 37.11689 -19.50745 -0 0 13.52173 -6.169626 6.367992 4.891423 6.062176 -20.81187 -2.022076 -90.50687 21.89516 19.56837 0 0 -20.44967 12.66918 11.8991 -0.8935363
1.124655 101.0326 13.59069 -0.7615587 2.118946 0.5307231 6.814806 -30.66838 6.766628 -0 23.62694 -0 -5.404103 -9.216442 -2.586485 -5.689898 14.64861 -19.46515 -0 9.156218 -0 2.690145 -21.9578 19.88786 -2.241969 -2.125897 4.781009 3.009687 10.02124 -7.79177 1.027535 20.8463 6.521122 3.134037 -26.03919 8.818906 5.364062 -18.94662 11.54725 87.00495 37.16886 -19.88409 -0 0 13.3362 -5.935931 6.30007 4.810537 6.048657 -20.88708 -2.001629 -90.40954 22.05832 19.44758 0 0 -20.84148 12.61161 11.82974 -0.7469559
1.243211 100.4935 16.96135 -1.133322 2.676625 0.7973382 7.456478 -31.40604 6.482926 -0 21.38513 -0 -5.224916 -9.329621 -2.730991 -5.357868 14.57309 -18.33276 -0 12.25873 -0 1.54219 -21.25072 17.89869 -2.238302 -2.137709 4.732114 3.071788 10.01543 -7.876412 1.022698 20.82014 6.527122 3.100241 -26.1476 8.854879 5.373775 -18.89124 11.54646 87.19279 37.21326 -20.16913 -0 0 13.14884 -5.807122 6.301223 4.780051 6.029649 -20.94016 -1.98531 -90.30373 22.19118 19.30428 0 0 -21.13612 12.54079 11.78305 -0.599754
1.347255 100.0858 20.78317 -1.494977 2.810558 1.060475 7.958282 -31.00115 5.937715 -0 19.77254 -0 -5.63601 -9.405307 -2.932505 -4.950004 14.14229 -17.04344 -0 16.41915 -0 0.7000001 -19.7214 15.92452 -2.237218 -2.130139 4.685273 3.109365 10.00933 -7.922002 1.021052 20.82044 6.527381 3.071297 -26.17352 8.866381 5.385469 -18.82604 11.54787 87.29009 37.22841 -20.30801 -0 0 12.99044 -5.819848 6.368493 4.824508 5.997995 -20.95907 -1.978211 -90.22917 22.2949 19.19298 0 0 -21.24788 12.42191 11.765 -0.4147769
1.440681 99.88105 25.03175 -1.800296 2.489491 1.28043 8.286122 -29.48756 5.141609 -0 18.77159 -0 -6.619415 -9.336577 -3.132351 -4.49246 13.27529 -15.65727 -0 21.44124 -0 0.2514877 -17.52292 14.15152 -2.238603 -2.102234 4.641637 3.120956 10.00315 -7.926701 1.022608 20.84783 6.521744 3.047372 -26.11307 8.852134 5.398896 -18.75157 11.55158 87.29176 37.21205 -20.29384 -0 0 12.86467 -5.982019 6.50467 4.947513 5.952982 -20.94195 -1.980929 -90.18789 22.36894 19.1169 0 0 -21.16968 12.24974 11.77468 -0.1867278
1.525574 99.93444 29.64008 -2.013717 1.754835 1.420943 8.450458 -26.97109 4.177703 -0 18.25286 -0 -8.035296 -9.138505 -3.284641 -4.000421 11.87483 -14.23335 -0 27.02972 -0 0.1605247 -14.87404 12.69474 -2.241414 -2.053384 4.606961 3.103769 9.997859 -7.88601 1.025565 20.90288 6.509317 3.030547 -25.96314 8.806062 5.413207 -18.67692 11.55855 87.18422 37.15284 -20.10952 -0 0 12.78922 -6.302723 6.701246 5.155974 5.892101 -20.88453 -1.995308 -90.19884 22.41693 19.10416 0 0 -20.87431 12.0076 11.81036 0.1034703
1.601428 100.2648 34.50117 -2.111048 0.6989648 1.455209 8.476292 -23.62234 3.16692 -0 18.01301 -0 -9.664596 -8.913081 -3.354489 -3.482784 9.855619 -12.83733 -0 32.70344 -0 0.3247237 -12.05105 11.64354 -2.244433 -1.984969 4.586645 3.057376 9.994125 -7.799682 1.028471 20.98304 6.490073 3.021828 -25.72958 8.726506 5.426759 -18.61136 11.56924 86.96601 37.04317 -19.75537 -0 0 12.77768 -6.776817 6.945245 5.448517 5.814574 -20.78588 -2.021594 -90.2738 22.44479 19.17483 0 0 -20.36042 11.68549 11.86631 0.4691155
1.665835 100.8401 39.48305 -2.087764 -0.5500612 1.369245 8.389663 -19.64432 2.233215 -0 17.80499 -0 -11.25385 -8.846264 -3.336362 -2.936102 7.159437 -11.52138 -0 37.87166 -0 0.606085 -9.328895 11.04707 -2.246174 -1.899225 4.587721 2.981453 9.992604 -7.667747 1.029708 21.08443 6.464218 3.022351 -25.42174 8.612613 5.437387 -18.56721 11.58419 86.63724 36.87498 -19.23382 -0 0 12.84773 -7.394617 7.219971 5.821513 5.719759 -20.64486 -2.059406 -90.42698 22.45978 19.35396 0 0 -19.63048 11.27315 11.93524 0.9245932
1.717545 101.5689 44.45176 -1.958571 -1.84821 1.161159 8.205766 -15.26255 1.471177 -0 17.37143 -0 -12.56665 -9.15592 -3.252707 -2.348388 3.792993 -10.31856 -0 41.86328 -0 0.8830331 -6.954574 10.9208 -2.245196 -1.799483 4.617051 2.8767 9.993617 -7.492203 1.028169 21.20139 6.432631 3.03251 -25.05373 8.466742 5.442679 -18.55681 11.6037 86.20443 36.64413 -18.55579 -0 0 13.01542 -8.138955 7.508918 6.266414 5.607983 -20.46157 -2.107016 -90.6681 22.46935 19.66171 0 0 -18.7019 10.76522 12.00834 1.479573
1.760831 102.3063 49.2992 -1.753582 -3.05849 0.8379555 7.930015 -10.6952 0.9269585 -0 16.49999 -0 -13.43322 -10.03292 -3.14249 -1.703937 -0.1452114 -9.238461 -0 44.036 -0 1.085627 -5.106784 11.23662 -2.240318 -1.689591 4.680688 2.74433 9.99704 -7.276181 1.023506 21.32736 6.396763 3.051956 -24.6417 8.294102 5.440359 -18.59117 11.62778 85.67841 36.35121 -17.73721 -0 0 13.29445 -8.988879 7.799319 6.771397 5.480389 -20.23674 -2.161535 -91.00185 22.47965 20.11181 0 0 -17.6031 10.16154 12.07688 2.138052
1.808839 102.8785 53.96802 -1.510337 -4.072976 0.4122784 7.565032 -6.133721 0.5941199 -0 15.09396 -0 -13.78633 -11.56611 -3.038826 -0.9949725 -4.439904 -8.276208 -0 43.91128 -0 1.212273 -3.869101 11.92092 -2.23083 -1.573733 4.782317 2.586549 10.00217 -7.024734 1.01637 21.45519 6.358696 3.079284 -24.203 8.103186 5.428698 -18.67741 11.65603 85.0757 36.00351 -16.80118 -0 0 13.69182 -9.919674 8.084555 7.321043 5.339281 -19.9727 -2.219025 -91.42436 22.49481 20.70554 0 0 -16.37636 9.469402 12.1332 2.895471
1.883285 103.1228 58.46449 -1.263912 -4.832453 -0.09934417 7.116937 -1.725807 0.4243104 -0 13.24589 -0 -13.67345 -13.67517 -2.951098 -0.2382764 -8.762546 -7.431825 -0 41.32934 -0 1.318382 -3.215379 12.86661 -2.216618 -1.456085 4.922075 2.406827 10.00774 -6.745095 1.008327 21.57792 6.32099 3.112113 -23.75467 7.905055 5.406883 -18.81695 11.68748 84.41812 35.61506 -15.77803 -0 0 14.2048 -10.9041 8.364728 7.897219 5.188202 -19.67418 -2.275039 -91.92195 22.5169 21.42882 0 0 -15.07602 8.704049 12.17191 3.737794
2.009504 102.9315 62.85457 -1.038403 -5.337378 -0.6766309 6.597228 2.422864 0.3489351 -0 11.27994 -0 -13.23836 -16.07074 -2.861766 0.5059228 -12.7085 -6.734919 -0 36.56246 -0 1.483818 -3.022146 13.95969 -2.198194 -1.340647 5.095572 2.210455 10.01208 -6.447237 1.001451 21.68936 6.286499 3.147372 -23.31298 7.712173 5.375332 -19.00416 11.72069 83.7327 35.20588 -14.70633 -0 0 14.81775 -11.91232 8.644763 8.479645 5.031974 -19.34938 -2.325329 -92.47091 22.54675 22.25064 0 0 -13.76628 7.88861 12.19044 4.641487
2.208765 102.2864 67.24416 -0.8430236 -5.646151 -1.29542 6.020954 6.228627 0.3031592 -0 9.726239 -0 -12.67952 -18.27106 -2.737635 1.125455 -15.87024 -6.258424 -0 30.32679 -0 1.776778 -3.108666 15.10722 -2.176619 -1.231125 5.293568 2.00495 10.01345 -6.144055 0.9976778 21.7847 6.258113 3.181851 -22.89315 7.536691 5.335878 -19.2263 11.75381 83.05066 34.79993 -13.63286 -0 0 15.50071 -12.91181 8.930725 9.046765 4.876523 -19.01077 -2.36665 -93.03921 22.5852 23.12463 0 0 -12.51639 7.052747 12.18919 5.575044
2.491571 101.2711 71.74976 -0.6744706 -5.859098 -1.928462 5.405342 9.596864 0.2416003 -0 9.210439 -0 -12.20171 -19.69089 -2.544321 1.475164 -17.92455 -6.102966 -0 23.65708 -0 2.233243 -3.293761 16.25116 -2.153365 -1.130897 5.502312 1.800282 10.01048 -5.851247 0.998098 21.86091 6.238495 3.212796 -22.50973 7.38871 5.29178 -19.46437 11.78488 82.40614 34.4225 -12.61177 -0 0 16.20964 -13.86712 9.225517 9.576526 4.728543 -18.67534 -2.397421 -93.58953 22.63432 23.99292 0 0 -11.39511 6.230638 12.17106 6.501437
2.855048 100.0568 76.46685 -0.5239178 -6.091655 -2.547055 4.771544 12.3929 0.1398168 -0 10.27799 -0 -11.97575 -19.79287 -2.253545 1.428782 -18.70155 -6.347613 -0 17.66123 -0 2.858743 -3.448882 17.36295 -2.130119 -1.043009 5.704557 1.608669 10.00254 -5.586676 1.002451 21.9168 6.22982 3.238335 -22.17681 7.274961 5.247491 -19.6949 11.81211 81.83472 34.0975 -11.70268 -0 0 16.88875 -14.74037 9.525561 10.04723 4.595008 -18.36407 -2.418065 -94.08281 22.69792 24.79142 0 0 -10.46534 5.458506 12.14046 7.381124
3.284938 98.8626 81.44248 -0.3847043 -6.443757 -3.122734 4.148083 14.43323 -0.01519047 -0 13.2088 -0 -12.11197 -18.25644 -1.843285 0.9389653 -18.20854 -6.993955 -0 13.22988 -0 3.644079 -3.529619 18.42639 -2.10858 -0.9701587 5.881139 1.443896 9.990135 -5.3693 1.008996 21.95283 6.233556 3.257559 -21.90807 7.198288 5.208147 -19.89232 11.83412 81.37188 33.84492 -10.96757 -0 0 17.47479 -15.49275 9.819655 10.4385 4.482603 -18.10057 -2.430917 -94.48141 22.78098 25.45532 0 0 -9.779999 4.772076 12.10195 8.175105
3.760442 97.90298 86.65763 -0.2566033 -6.973372 -3.628782 3.571172 15.50527 -0.2356697 -0 17.8897 -0 -12.64863 -15.09897 -1.299823 0.064093 -16.60488 -7.945778 -0 10.80441 -0 4.579798 -3.578518 19.42138 -2.090238 -0.9146485 6.012979 1.320124 9.974975 -5.217664 1.014841 21.97052 6.2503 3.270211 -21.71629 7.158034 5.178809 -20.03165 11.85006 81.05148 33.67891 -10.46667 -0 0 17.90308 -16.08736 10.09053 10.7326 4.397117 -17.90894 -2.439721 -94.75145 22.88828 25.9241 0 0 -9.380098 4.204112 12.05866 8.847781
